# MagicaVoxel @ Ephtracy

# group
o 

# material
mtllib Tile_001.mtl
usemtl palette

# normals
vn -1 0 0
vn 1 0 0
vn 0 0 1
vn 0 0 -1
vn 0 -1 0
vn 0 1 0

# texcoords
vt 0.306641 0.5
vt 0.587891 0.5
vt 0.591797 0.5
vt 0.869141 0.5
vt 0.994141 0.5

# verts
v -0.5 0 0.5
v -0.5 0 -0.5
v -0.5 0.2 -0.3
v -0.5 0.2 -0.4
v -0.5 0.3 0.3
v -0.5 0.3 0.2
v -0.5 0.3 -0.3
v -0.5 0.3 -0.4
v -0.5 0.4 0.3
v -0.5 0.4 0.2
v -0.5 0.4 0
v -0.5 0.4 -0.1
v -0.5 0.5 0
v -0.5 0.5 -0.1
v -0.5 0.7 0.5
v -0.5 0.7 -0.5
v -0.5 1 0.5
v -0.5 1 -0.5
v 0.5 0 0.5
v 0.5 0 -0.5
v 0.5 0.1 0.1
v 0.5 0.1 0
v 0.5 0.2 0.1
v 0.5 0.2 0
v 0.5 0.2 -0.3
v 0.5 0.2 -0.4
v 0.5 0.3 -0.3
v 0.5 0.3 -0.4
v 0.5 0.4 0.4
v 0.5 0.4 0.3
v 0.5 0.4 0.1
v 0.5 0.4 0
v 0.5 0.5 0.4
v 0.5 0.5 0.3
v 0.5 0.5 0.1
v 0.5 0.5 0
v 0.5 0.7 0.5
v 0.5 0.7 -0.5
v 0.5 1 0.5
v 0.5 1 -0.5
v -0.5 0 0.5
v -0.5 0.7 0.5
v -0.5 1 0.5
v -0.2 0.2 0.5
v -0.2 0.3 0.5
v -0.1 0.2 0.5
v -0.1 0.3 0.5
v 0.1 0.3 0.5
v 0.1 0.4 0.5
v 0.2 0.3 0.5
v 0.2 0.4 0.5
v 0.2 0.5 0.5
v 0.2 0.6 0.5
v 0.3 0.5 0.5
v 0.3 0.6 0.5
v 0.5 0 0.5
v 0.5 0.7 0.5
v 0.5 1 0.5
v -0.5 0 -0.5
v -0.5 0.7 -0.5
v -0.5 1 -0.5
v -0.4 0.1 -0.5
v -0.4 0.2 -0.5
v -0.3 0.1 -0.5
v -0.3 0.2 -0.5
v -0.3 0.5 -0.5
v -0.3 0.6 -0.5
v -0.2 0.5 -0.5
v -0.2 0.6 -0.5
v -0.1 0.3 -0.5
v -0.1 0.4 -0.5
v 0 0.3 -0.5
v 0 0.4 -0.5
v 0.1 0.5 -0.5
v 0.1 0.6 -0.5
v 0.2 0.5 -0.5
v 0.2 0.6 -0.5
v 0.3 0.2 -0.5
v 0.3 0.3 -0.5
v 0.4 0.2 -0.5
v 0.4 0.3 -0.5
v 0.5 0 -0.5
v 0.5 0.7 -0.5
v 0.5 1 -0.5
v -0.5 0 0.5
v 0.5 0 0.5
v -0.5 0 -0.5
v 0.5 0 -0.5
v -0.5 1 0.5
v 0.5 1 0.5
v -0.3 1 0.4
v -0.2 1 0.4
v -0.3 1 0.3
v -0.2 1 0.3
v -0.1 1 0.3
v 0 1 0.3
v -0.1 1 0.2
v 0 1 0.2
v 0.3 1 0.2
v 0.4 1 0.2
v -0.3 1 0.1
v -0.2 1 0.1
v 0.3 1 0.1
v 0.4 1 0.1
v -0.3 1 0
v -0.2 1 0
v 0.2 1 -0.2
v 0.3 1 -0.2
v -0.4 1 -0.3
v -0.3 1 -0.3
v 0.2 1 -0.3
v 0.3 1 -0.3
v -0.4 1 -0.4
v -0.3 1 -0.4
v -0.5 1 -0.5
v 0.5 1 -0.5

# faces
f 3/3/1 2/3/1 1/3/1
f 4/3/1 2/3/1 3/3/1
f 5/3/1 3/3/1 1/3/1
f 6/3/1 3/3/1 5/3/1
f 7/2/1 4/2/1 3/2/1
f 7/3/1 3/3/1 6/3/1
f 8/3/1 2/3/1 4/3/1
f 8/2/1 4/2/1 7/2/1
f 9/2/1 6/2/1 5/2/1
f 9/3/1 5/3/1 1/3/1
f 10/3/1 7/3/1 6/3/1
f 10/2/1 6/2/1 9/2/1
f 10/3/1 8/3/1 7/3/1
f 11/3/1 8/3/1 10/3/1
f 12/3/1 8/3/1 11/3/1
f 13/3/1 10/3/1 9/3/1
f 13/3/1 11/3/1 10/3/1
f 13/2/1 12/2/1 11/2/1
f 14/3/1 8/3/1 12/3/1
f 14/2/1 12/2/1 13/2/1
f 15/3/1 9/3/1 1/3/1
f 15/3/1 13/3/1 9/3/1
f 15/3/1 14/3/1 13/3/1
f 16/3/1 8/3/1 14/3/1
f 16/3/1 14/3/1 15/3/1
f 16/3/1 2/3/1 8/3/1
f 17/4/1 16/4/1 15/4/1
f 18/4/1 16/4/1 17/4/1
f 19/3/2 20/3/2 21/3/2
f 21/3/2 20/3/2 22/3/2
f 19/3/2 21/3/2 23/3/2
f 21/2/2 22/2/2 23/2/2
f 22/3/2 20/3/2 24/3/2
f 23/2/2 22/2/2 24/2/2
f 24/3/2 20/3/2 25/3/2
f 25/3/2 20/3/2 26/3/2
f 23/3/2 24/3/2 27/3/2
f 24/3/2 25/3/2 27/3/2
f 25/2/2 26/2/2 27/2/2
f 26/3/2 20/3/2 28/3/2
f 27/2/2 26/2/2 28/2/2
f 19/3/2 23/3/2 29/3/2
f 23/3/2 27/3/2 29/3/2
f 27/3/2 28/3/2 29/3/2
f 29/3/2 28/3/2 30/3/2
f 30/3/2 28/3/2 31/3/2
f 31/3/2 28/3/2 32/3/2
f 19/3/2 29/3/2 33/3/2
f 29/2/2 30/2/2 33/2/2
f 30/3/2 31/3/2 34/3/2
f 33/2/2 30/2/2 34/2/2
f 31/2/2 32/2/2 35/2/2
f 34/3/2 31/3/2 35/3/2
f 32/3/2 28/3/2 36/3/2
f 35/2/2 32/2/2 36/2/2
f 34/3/2 35/3/2 37/3/2
f 33/3/2 34/3/2 37/3/2
f 35/3/2 36/3/2 37/3/2
f 19/3/2 33/3/2 37/3/2
f 28/3/2 20/3/2 38/3/2
f 37/3/2 36/3/2 38/3/2
f 36/3/2 28/3/2 38/3/2
f 37/4/2 38/4/2 39/4/2
f 39/4/2 38/4/2 40/4/2
f 44/3/3 42/3/3 41/3/3
f 45/3/3 42/3/3 44/3/3
f 46/3/3 44/3/3 41/3/3
f 46/2/3 45/2/3 44/2/3
f 47/3/3 42/3/3 45/3/3
f 47/2/3 45/2/3 46/2/3
f 48/3/3 47/3/3 46/3/3
f 48/3/3 42/3/3 47/3/3
f 49/3/3 42/3/3 48/3/3
f 50/3/3 48/3/3 46/3/3
f 50/2/3 49/2/3 48/2/3
f 51/3/3 42/3/3 49/3/3
f 51/2/3 49/2/3 50/2/3
f 52/3/3 42/3/3 51/3/3
f 53/3/3 42/3/3 52/3/3
f 54/3/3 51/3/3 50/3/3
f 54/3/3 52/3/3 51/3/3
f 54/2/3 53/2/3 52/2/3
f 55/3/3 42/3/3 53/3/3
f 55/2/3 53/2/3 54/2/3
f 56/3/3 46/3/3 41/3/3
f 56/3/3 50/3/3 46/3/3
f 56/3/3 55/3/3 54/3/3
f 56/3/3 54/3/3 50/3/3
f 57/4/3 43/4/3 42/4/3
f 57/3/3 55/3/3 56/3/3
f 57/3/3 42/3/3 55/3/3
f 58/4/3 43/4/3 57/4/3
f 59/3/4 60/3/4 62/3/4
f 62/3/4 60/3/4 63/3/4
f 59/3/4 62/3/4 64/3/4
f 62/2/4 63/2/4 64/2/4
f 63/3/4 60/3/4 65/3/4
f 64/2/4 63/2/4 65/2/4
f 65/3/4 60/3/4 66/3/4
f 66/3/4 60/3/4 67/3/4
f 64/3/4 65/3/4 68/3/4
f 65/3/4 66/3/4 68/3/4
f 66/2/4 67/2/4 68/2/4
f 67/3/4 60/3/4 69/3/4
f 68/2/4 67/2/4 69/2/4
f 64/3/4 68/3/4 70/3/4
f 68/3/4 69/3/4 70/3/4
f 70/3/4 69/3/4 71/3/4
f 64/3/4 70/3/4 72/3/4
f 70/2/4 71/2/4 72/2/4
f 71/3/4 69/3/4 73/3/4
f 72/2/4 71/2/4 73/2/4
f 72/3/4 73/3/4 74/3/4
f 73/3/4 69/3/4 74/3/4
f 69/3/4 60/3/4 75/3/4
f 74/3/4 69/3/4 75/3/4
f 72/3/4 74/3/4 76/3/4
f 74/2/4 75/2/4 76/2/4
f 75/3/4 60/3/4 77/3/4
f 76/2/4 75/2/4 77/2/4
f 72/3/4 76/3/4 78/3/4
f 64/3/4 72/3/4 78/3/4
f 76/3/4 77/3/4 78/3/4
f 78/3/4 77/3/4 79/3/4
f 64/3/4 78/3/4 80/3/4
f 78/2/4 79/2/4 80/2/4
f 79/3/4 77/3/4 81/3/4
f 80/2/4 79/2/4 81/2/4
f 59/3/4 64/3/4 82/3/4
f 64/3/4 80/3/4 82/3/4
f 80/3/4 81/3/4 82/3/4
f 60/4/4 61/4/4 83/4/4
f 82/3/4 81/3/4 83/3/4
f 81/3/4 77/3/4 83/3/4
f 77/3/4 60/3/4 83/3/4
f 83/4/4 61/4/4 84/4/4
f 87/3/5 86/3/5 85/3/5
f 88/3/5 86/3/5 87/3/5
f 89/4/6 90/4/6 91/4/6
f 91/4/6 90/4/6 92/4/6
f 89/4/6 91/4/6 93/4/6
f 91/5/6 92/5/6 93/5/6
f 92/4/6 90/4/6 94/4/6
f 93/5/6 92/5/6 94/5/6
f 94/4/6 90/4/6 95/4/6
f 95/4/6 90/4/6 96/4/6
f 93/4/6 94/4/6 97/4/6
f 94/4/6 95/4/6 97/4/6
f 95/5/6 96/5/6 97/5/6
f 96/4/6 90/4/6 98/4/6
f 97/5/6 96/5/6 98/5/6
f 98/4/6 90/4/6 99/4/6
f 99/4/6 90/4/6 100/4/6
f 89/4/6 93/4/6 101/4/6
f 93/4/6 97/4/6 101/4/6
f 97/4/6 98/4/6 101/4/6
f 98/4/6 99/4/6 101/4/6
f 101/4/6 99/4/6 102/4/6
f 99/5/6 100/5/6 103/5/6
f 102/4/6 99/4/6 103/4/6
f 100/4/6 90/4/6 104/4/6
f 103/5/6 100/5/6 104/5/6
f 101/5/6 102/5/6 105/5/6
f 89/4/6 101/4/6 105/4/6
f 102/4/6 103/4/6 106/4/6
f 105/5/6 102/5/6 106/5/6
f 103/4/6 104/4/6 106/4/6
f 105/4/6 106/4/6 107/4/6
f 106/4/6 104/4/6 107/4/6
f 107/4/6 104/4/6 108/4/6
f 89/4/6 105/4/6 109/4/6
f 105/4/6 107/4/6 109/4/6
f 109/4/6 107/4/6 110/4/6
f 107/5/6 108/5/6 111/5/6
f 110/4/6 107/4/6 111/4/6
f 108/4/6 104/4/6 112/4/6
f 111/5/6 108/5/6 112/5/6
f 109/5/6 110/5/6 113/5/6
f 89/4/6 109/4/6 113/4/6
f 110/4/6 111/4/6 114/4/6
f 113/5/6 110/5/6 114/5/6
f 111/4/6 112/4/6 114/4/6
f 89/4/6 113/4/6 115/4/6
f 113/4/6 114/4/6 115/4/6
f 114/4/6 112/4/6 116/4/6
f 115/4/6 114/4/6 116/4/6
f 104/4/6 90/4/6 116/4/6
f 112/4/6 104/4/6 116/4/6
